HIERARCHY
ROOT Bip001_Pelvis
{
  OFFSET 34.4345 95.6767 -26.8758
  CHANNELS 6 Xposition Yposition Zposition Zrotation Xrotation Yrotation
  JOINT Bip001_Spine
  {
    OFFSET 1.4188e-005 10.2191 -0.0116013
    CHANNELS 3 Zrotation Xrotation Yrotation
    JOINT Bip001_L_Thigh
    {
      OFFSET 11.0458 -10.2192 0.0116197
      CHANNELS 3 Zrotation Xrotation Yrotation
      JOINT Bip001_L_Calf
      {
        OFFSET -0.707118 -44.0221 0.360014
        CHANNELS 3 Zrotation Xrotation Yrotation
        JOINT Bip001_L_Foot
        {
          OFFSET -0.651902 -40.5938 -3.56146
          CHANNELS 3 Zrotation Xrotation Yrotation
          JOINT Bip001_L_Toe0
          {
            OFFSET 0.0530839 -10.2181 13.1504
            CHANNELS 3 Zrotation Xrotation Yrotation
            End Site
            {
              OFFSET -1.02532e-005 0 7.55606
            }
          }
        }
      }
    }
    JOINT Bip001_R_Thigh
    {
      OFFSET -11.0458 -10.2191 0.0115893
      CHANNELS 3 Zrotation Xrotation Yrotation
      JOINT Bip001_R_Calf
      {
        OFFSET 0.706994 -44.0221 0.35984
        CHANNELS 3 Zrotation Xrotation Yrotation
        JOINT Bip001_R_Foot
        {
          OFFSET 0.651786 -40.5938 -3.5613
          CHANNELS 3 Zrotation Xrotation Yrotation
          JOINT Bip001_R_Toe0
          {
            OFFSET -0.0531479 -10.2181 13.1504
            CHANNELS 3 Zrotation Xrotation Yrotation
            End Site
            {
              OFFSET -1.02894e-005 0 7.55606
            }
          }
        }
      }
    }
    JOINT Bip001_Spine1
    {
      OFFSET 1.87041e-005 14.5736 1.08638
      CHANNELS 3 Zrotation Xrotation Yrotation
      JOINT Bip001_Spine2
      {
        OFFSET 2.24614e-005 14.5058 -1.69078
        CHANNELS 3 Zrotation Xrotation Yrotation
        JOINT Bip001_Neck
        {
          OFFSET 2.20278e-005 15.3945 -0.489414
          CHANNELS 3 Zrotation Xrotation Yrotation
          JOINT Bip001_L_Clavicle
          {
            OFFSET 6.06036 -0.000579998 0.00836775
            CHANNELS 3 Zrotation Xrotation Yrotation
            JOINT Bip001_L_UpperArm
            {
              OFFSET 11.5509 -0.0600302 0.00193952
              CHANNELS 3 Zrotation Xrotation Yrotation
              JOINT Bip001_L_Forearm
              {
                OFFSET 25.9523 0.0806089 -2.15551
                CHANNELS 3 Zrotation Xrotation Yrotation
                JOINT Bip001_L_Hand
                {
                  OFFSET 32.2475 0.153767 1.63968
                  CHANNELS 3 Zrotation Xrotation Yrotation
                  JOINT Bip001_L_Finger0
                  {
                    OFFSET 6.04639 -2.20976 5.90322
                    CHANNELS 3 Zrotation Xrotation Yrotation
                    End Site
                    {
                      OFFSET 4.22375 -1.43895 0.606485
                    }
                  }
                  JOINT Bip001_L_Finger1
                  {
                    OFFSET 11.0826 -0.704819 -0.198153
                    CHANNELS 3 Zrotation Xrotation Yrotation
                    End Site
                    {
                      OFFSET 6.20027 -0.397518 -0.0787166
                    }
                  }
                }
              }
            }
          }
          JOINT Bip001_R_Clavicle
          {
            OFFSET -6.06037 -0.000563197 0.00835105
            CHANNELS 3 Zrotation Xrotation Yrotation
            JOINT Bip001_R_UpperArm
            {
              OFFSET -11.5509 -0.0599978 0.00190698
              CHANNELS 3 Zrotation Xrotation Yrotation
              JOINT Bip001_R_Forearm
              {
                OFFSET -25.9523 0.0806822 -2.15589
                CHANNELS 3 Zrotation Xrotation Yrotation
                JOINT Bip001_R_Hand
                {
                  OFFSET -32.2475 0.153859 1.63989
                  CHANNELS 3 Zrotation Xrotation Yrotation
                  JOINT Bip001_R_Finger0
                  {
                    OFFSET -6.04641 -2.20976 5.90317
                    CHANNELS 3 Zrotation Xrotation Yrotation
                    End Site
                    {
                      OFFSET -4.22376 -1.43895 0.60647
                    }
                  }
                  JOINT Bip001_R_Finger1
                  {
                    OFFSET -11.0826 -0.704794 -0.198182
                    CHANNELS 3 Zrotation Xrotation Yrotation
                    End Site
                    {
                      OFFSET -6.20028 -0.397504 -0.0787333
                    }
                  }
                }
              }
            }
          }
          JOINT Bip001_Head
          {
            OFFSET 1.09673e-005 11.2744 2.05948
            CHANNELS 3 Zrotation Xrotation Yrotation
            End Site
            {
              OFFSET 2.89576e-005 20.8808 -2.77728e-005
            }
          }
        }
      }
    }
  }
}
MOTION
Frames:	9
Frame Time:	0.04
31.3043 92.8618 -29.2519 -5.07068 -6.94897 4.36599 -0.56203 2.10772 -0.109855 17.3082 -7.28025 13.0761 -1.46605 31.4885 -8.91234 4.71609 -14.3798 0.384732 1.9447 -6.58958 -1.03108 2.80397 -2.20117 2.89917 2.83383 23.3649 0.502859 -12.6977 -11.8027 -10.5382 3.45588 -11.3307 3.75942 -1.12113 4.21649 -0.199207 -1.12114 4.2165 -0.199203 8.43764 -12.1313 -3.25961 -25.3431 13.9943 -7.66072 -45.2815 45.5531 6.39374 22.3853 4.12896 -40.3137 9.73521 2.6679 -6.09329 1.93108e-031 -3.97569e-015 2.78299e-015 -3.18055e-015 -3.57813e-015 1.19271e-015 -3.77097 14.1816 17.2722 55.7622 -66.9198 66.7135 -46.4961 9.18415 59.0401 -6.23274 -11.5348 7.99648 -1.59028e-015 7.95139e-016 -1.49088e-015 -3.18055e-015 7.95139e-016 -9.93923e-017 -7.84761 -7.86334 -0.272781 
30.941 93.5788 -29.5499 -5.00787 -5.62509 7.19326 -1.01083 1.98813 0.454311 17.5165 -8.76951 11.5756 -1.0256 29.0697 -9.797 1.30451 -14.2331 0.130977 1.30413 -4.7993 -0.864314 3.66749 -1.48383 1.62072 2.53288 19.2219 -0.0215634 -12.012 -9.84462 -11.2707 3.23887 -10.7723 3.63224 -2.03926 3.96786 0.944536 -2.03925 3.96786 0.944533 8.8377 -12.7346 -5.62951 -26.4147 13.5772 -5.75136 -42.0699 40.5043 4.60051 19.596 1.815 -42.5793 10.92 1.82579 -7.39711 -8.82781e-032 -3.18055e-015 -1.59028e-015 3.18055e-015 -1.59028e-015 -1.59028e-015 -7.34027 13.9988 21.1205 30.7864 -56.6303 51.4742 -41.3276 6.26718 41.8392 -12.8446 -10.7101 4.9331 3.18055e-015 -3.97569e-016 2.48481e-016 1.59028e-015 -3.97569e-016 8.44835e-016 -8.06782 -7.32853 -2.44919 
30.3476 94.2175 -29.7143 -5.26147 -4.03745 10.2535 -1.2798 1.77747 0.706725 17.6907 -10.0994 10.3363 -0.848703 25.8716 -11.5755 1.67053 -11.6042 0.124378 1.47804 -5.32686 -1.07347 4.7354 -0.799028 1.48428 2.56833 14.7438 -0.379522 -11.848 -7.51568 -13.3113 3.00276 -10.1366 3.46588 -2.58444 3.53871 1.4445 -2.58457 3.53867 1.44894 9.79055 -13.1358 -7.59129 -27.7078 12.7126 -3.01862 -41.4602 35.753 4.24142 17.8381 0.490383 -45.5377 9.98877 1.82783 -7.48621 1.27222e-014 -6.36111e-015 6.36111e-015 9.54166e-015 1.59028e-015 3.18055e-015 -8.79998 14.1972 24.8843 80.5677 -63.3006 98.4761 -81.132 24.4899 56.2416 6.25439 -20.4 -7.63515 3.20008e-031 3.18055e-015 -5.76475e-015 4.80012e-031 4.77083e-015 -5.76476e-015 -8.78706 -5.23708 -3.91391 
30.0392 94.7157 -29.6199 -4.89323 -3.01846 13.9489 -1.38977 1.52593 0.349575 16.6642 -10.403 10.0086 0.160755 22.3 -14.7855 2.36793 -8.92479 0.0867104 1.70122 -5.94595 -1.29451 5.02638 0.725884 0.699085 2.18618 10.6399 -1.06161 -11.5521 -5.794 -14.6114 2.84321 -9.76344 3.40586 -2.76575 3.04253 0.747592 -2.78112 3.04256 0.741021 11.6426 -11.2602 -9.29022 -28.4281 9.55547 -0.701062 -44.6799 33.5043 5.49707 17.4486 0.617326 -47.7375 9.93358 1.86722 -6.20913 -6.36111e-015 -3.18055e-015 3.18055e-015 -3.18055e-015 0 6.36111e-015 -8.03237 12.2941 22.6903 78.3489 -63.1982 101.042 -64.9561 23.8299 50.6028 4.34766 -12.9793 -7.02581 -1.59028e-015 -7.95139e-016 -2.5842e-015 0 0 -1.39149e-015 -9.71357 -3.77298 -4.63616 
30.2203 95.1634 -29.4421 -4.0388 -3.06604 15.1235 -1.30113 1.28623 0.107477 15.1914 -8.4871 8.36621 0.149016 18.8345 -13.7694 0.571817 -8.16261 0.0460862 1.52922 -5.07414 -1.21451 4.38829 3.17979 -0.215393 1.61792 7.11834 -1.23151 -10.8186 -4.5726 -13.9174 2.83455 -9.41982 2.95035 -2.62096 2.57026 0.227706 -2.6094 2.57009 0.23637 13.8333 -8.50865 -10.8395 -30.1161 5.99155 -0.672262 -49.1066 31.7488 11.3476 14.9863 -0.209505 -49.4993 11.2118 1.79751 -5.42114 3.18055e-015 9.54166e-015 3.18055e-015 3.18055e-015 9.54167e-015 3.18055e-015 -14.8332 6.60435 19.542 26.0804 -54.0942 57.1313 -37.3167 10.9776 29.186 -10.0659 -3.47534 1.83187 0 0 -9.93923e-016 1.59028e-015 7.95139e-016 -0 -12.7619 -3.50156 -4.83224 
30.716 95.5334 -29.4512 -3.34985 -3.32204 11.6661 -1.06823 1.29666 0.201072 13.9304 -5.14696 7.92226 -0.582587 15.2943 -10.1569 -0.424754 -7.40722 0.0374647 1.02694 -4.73185 -0.558575 3.05376 4.36333 -0.735006 0.819892 5.13873 -1.03217 -9.41876 -4.30505 -10.4513 2.80249 -9.16175 2.69923 -2.16387 2.58882 0.430624 -2.15442 2.58873 0.429639 11.3792 -8.57561 -10.2252 -30.0247 6.28471 0.654557 -49.4183 35.6819 13.1257 14.1806 -1.86889 -47.8111 7.87144 2.07289 -4.94173 3.18055e-015 -6.36111e-015 -3.18055e-015 6.36111e-015 -3.18056e-015 -6.36111e-015 -17.865 5.59879 19.4049 0.482035 -36.3971 41.1612 -31.9564 3.708 20.1907 -2.43258 -3.91991 0.658559 0 0 -0 -3.18055e-015 0 -0 -10.6727 -0.594605 -5.0157 
31.2182 95.8273 -29.8443 -3.06488 -2.49099 7.27598 -1.03221 1.20894 0.636199 12.9702 -2.97659 11.2267 -0.679646 11.8803 -9.76405 -0.651063 -6.30999 0.0407123 0.559285 -4.45747 -0.0441779 1.80937 3.72739 -1.40584 0.289057 3.76727 -1.09445 -7.59676 -4.29366 -6.31553 2.62066 -8.714 2.64738 -2.07847 2.40614 1.29451 -2.07847 2.40614 1.29451 10.4035 -8.61555 -10.0895 -30.151 6.29201 1.52688 -49.1499 40.7853 12.9439 16.8852 -1.9947 -43.8894 1.8005 2.3458 -4.37958 -3.18055e-015 0 -3.18055e-015 -3.18055e-015 0 -3.18055e-015 -19.5142 5.06226 18.8991 -5.56017 -31.6085 42.5338 -32.0891 13.17 22.5956 -2.69114 -6.09733 3.6257 -3.18055e-015 -4.77083e-015 1.59028e-015 -3.18055e-015 0 -1.59028e-015 -8.99185 0.325993 -5.35533 
31.6098 95.9985 -30.207 -3.0637 -1.54001 3.63313 -0.936137 1.04642 1.05867 11.8774 -1.60984 9.55457 -0.679336 8.97246 -5.05042 -0.825586 -5.17087 0.0597088 0.553995 -4.41743 -0.0179228 0.944151 3.38061 -1.75494 0.127387 1.66962 -0.888981 -6.19591 -3.78484 -3.17762 2.44675 -8.25296 2.56918 -1.89059 2.07667 2.12561 -1.89175 2.07641 2.13367 12.7004 -7.889 -10.635 -32.2504 5.14733 0.595063 -50.0507 43.1975 13.6681 19.8482 1.47557 -40.8111 2.73957 2.1402 -4.33679 9.54166e-015 3.18055e-015 -1.59028e-015 9.54166e-015 3.18056e-015 -1.59028e-015 -22.6819 3.36731 18.6635 -8.30137 -24.8495 45.8617 -37.7027 12.5627 25.6486 -2.53621 -6.30813 9.17715 6.62086e-032 4.77083e-015 -7.95139e-016 -6.36111e-015 6.36111e-015 1.59028e-015 -10.2039 -1.01627 -5.15569 
31.7423 95.9985 -30.8276 -2.74209 -0.760402 1.77955 -0.707448 1.05419 1.05841 10.8413 -2.11675 9.91391 -0.365316 8.60908 -3.97656 0.16857 -4.23518 0.0508305 0.83113 -5.13576 -0.0571271 -0.0426025 1.64525 -1.92861 0.146572 2.517 -0.691552 -5.49711 -4.39118 -1.4567 2.33813 -7.95879 2.5144 -1.43688 2.09419 2.14089 -1.43539 2.09433 2.13606 13.4173 -9.77446 -10.6104 -33.3712 6.62561 1.37318 -50.9039 44.5674 12.276 20.2075 2.89981 -37.7272 4.70999 2.76675 -4.05791 6.36111e-015 7.95139e-015 -3.18055e-015 3.18055e-015 9.54167e-015 -3.18055e-015 -22.6947 5.27227 19.4502 -4.38979 -24.2552 52.0314 -44.1799 9.89411 35.5932 5.01283 -7.0639 9.73776 1.27222e-014 -7.45442e-015 -1.25483e-015 6.36111e-015 -5.2678e-015 -3.72721e-016 -10.7443 -0.240613 -4.9857 
